<svg width="35" height="35" viewBox="0 0 35 35" fill="none" xmlns="http://www.w3.org/2000/svg">
<mask id="mask0_11_122" style="mask-type:alpha" maskUnits="userSpaceOnUse" x="0" y="0" width="35" height="35">
<rect width="35" height="35" fill="#D9D9D9"/>
</mask>
<g mask="url(#mask0_11_122)">
<path d="M5.83334 32.0833C4.61807 32.0833 3.58508 31.658 2.73439 30.8073C1.88369 29.9566 1.45834 28.9236 1.45834 27.7083C1.45834 26.4931 1.88369 25.4601 2.73439 24.6094C3.58508 23.7587 4.61807 23.3333 5.83334 23.3333C7.04862 23.3333 8.08161 23.7587 8.9323 24.6094C9.783 25.4601 10.2083 26.4931 10.2083 27.7083C10.2083 28.9236 9.783 29.9566 8.9323 30.8073C8.08161 31.658 7.04862 32.0833 5.83334 32.0833ZM5.83334 29.1667C6.24654 29.1667 6.59289 29.0269 6.87241 28.7474C7.15192 28.4679 7.29168 28.1215 7.29168 27.7083C7.29168 27.2951 7.15192 26.9488 6.87241 26.6693C6.59289 26.3898 6.24654 26.25 5.83334 26.25C5.42015 26.25 5.07379 26.3898 4.79428 26.6693C4.51477 26.9488 4.37501 27.2951 4.37501 27.7083C4.37501 28.1215 4.51477 28.4679 4.79428 28.7474C5.07379 29.0269 5.42015 29.1667 5.83334 29.1667ZM11.6667 32.0833C12.007 31.6458 12.2804 31.1901 12.487 30.7161C12.6936 30.2422 12.8576 29.7257 12.9792 29.1667H16.0417V18.9583C16.0417 18.1562 15.7561 17.4696 15.1849 16.8984C14.6137 16.3273 13.9271 16.0417 13.125 16.0417H5.83334V20.4167C5.32293 20.4167 4.81859 20.4653 4.32032 20.5625C3.82206 20.6597 3.35418 20.8056 2.91668 21V13.125H7.29168V8.16666C7.29168 6.29513 7.94185 4.7092 9.2422 3.40885C10.5425 2.1085 12.1285 1.45833 14 1.45833C15.3611 1.45833 16.6007 1.82899 17.7188 2.57031C18.8368 3.31163 19.6632 4.30208 20.1979 5.54166L30.1511 29.1667H33.5417V32.0833H23.3333V29.1667H26.9792L17.5365 6.70833C17.2448 6.00347 16.7769 5.43836 16.1328 5.01302C15.4887 4.58767 14.7778 4.37499 14 4.37499C12.9306 4.37499 12.0313 4.73958 11.3021 5.46875C10.5729 6.19791 10.2083 7.09722 10.2083 8.16666V13.125H13.125C14.7292 13.125 16.1024 13.6962 17.2448 14.8385C18.3872 15.9809 18.9583 17.3542 18.9583 18.9583V32.0833H11.6667Z" fill="white"/>
</g>
</svg>
