<svg width="43" height="43" viewBox="0 0 43 43" fill="none" xmlns="http://www.w3.org/2000/svg">
<mask id="mask0_34_94" style="mask-type:alpha" maskUnits="userSpaceOnUse" x="0" y="0" width="43" height="43">
<rect width="43" height="43" fill="#D9D9D9"/>
</mask>
<g mask="url(#mask0_34_94)">
<path d="M19.7531 37.625V33.7729C18.1704 33.4146 16.8043 32.7278 15.6546 31.7125C14.505 30.6972 13.6614 29.2639 13.1239 27.4125L16.4385 26.0688C16.8864 27.5021 17.5508 28.592 18.4317 29.3385C19.3126 30.0851 20.4697 30.4583 21.9031 30.4583C23.1274 30.4583 24.165 30.1821 25.0161 29.6297C25.8671 29.0773 26.2927 28.2188 26.2927 27.0542C26.2927 26.009 25.9642 25.1804 25.3072 24.5682C24.6503 23.9561 23.1274 23.2618 20.7385 22.4854C18.1704 21.6792 16.4086 20.7161 15.4531 19.5964C14.4975 18.4766 14.0197 17.1104 14.0197 15.4979C14.0197 13.5569 14.6468 12.049 15.901 10.974C17.1552 9.89896 18.4392 9.28681 19.7531 9.1375V5.375H23.3364V9.1375C24.8295 9.37639 26.0612 9.92135 27.0317 10.7724C28.0022 11.6234 28.7114 12.6611 29.1593 13.8854L25.8447 15.3188C25.4864 14.3632 24.9788 13.6465 24.3218 13.1687C23.6649 12.691 22.769 12.4521 21.6343 12.4521C20.3204 12.4521 19.3201 12.7432 18.6333 13.3255C17.9465 13.9078 17.6031 14.6319 17.6031 15.4979C17.6031 16.4833 18.051 17.2597 18.9468 17.8271C19.8427 18.3944 21.3954 18.9917 23.6052 19.6188C25.6656 20.216 27.2258 21.1641 28.2859 22.463C29.346 23.762 29.876 25.2625 29.876 26.9646C29.876 29.0847 29.2489 30.6972 27.9947 31.8021C26.7406 32.9069 25.1878 33.5938 23.3364 33.8625V37.625H19.7531Z" fill="#00406D"/>
</g>
</svg>
