<svg width="37" height="33" viewBox="0 0 37 33" fill="none" xmlns="http://www.w3.org/2000/svg">
<path d="M16.5 32.5695V28.9507H31.1667V16.1038C31.1667 12.5755 29.9215 9.58237 27.4313 7.12458C24.941 4.66679 21.9083 3.43789 18.3333 3.43789C14.7583 3.43789 11.7257 4.66679 9.23542 7.12458C6.74514 9.58237 5.5 12.5755 5.5 16.1038V27.1413H3.66667C2.65833 27.1413 1.79514 26.7869 1.07708 26.0782C0.359028 25.3695 0 24.5176 0 23.5224V19.9036C0 19.2703 0.160417 18.6747 0.48125 18.1168C0.802083 17.5589 1.25278 17.1141 1.83333 16.7823L1.97083 14.3849C2.21528 12.3342 2.81875 10.4343 3.78125 8.6852C4.74375 6.9361 5.95069 5.41317 7.40208 4.11642C8.85347 2.81968 10.5188 1.80942 12.3979 1.08565C14.2771 0.361883 16.2556 0 18.3333 0C20.4111 0 22.3819 0.361883 24.2458 1.08565C26.1097 1.80942 27.775 2.81214 29.2417 4.09381C30.7083 5.37548 31.9153 6.89086 32.8625 8.63997C33.8097 10.3891 34.4208 12.289 34.6958 14.3396L34.8333 16.6919C35.4139 16.9633 35.8646 17.3704 36.1854 17.9132C36.5063 18.4561 36.6667 19.029 36.6667 19.6322V23.7938C36.6667 24.397 36.5063 24.97 36.1854 25.5128C35.8646 26.0556 35.4139 26.4627 34.8333 26.7341V28.9507C34.8333 29.9459 34.4743 30.7978 33.7563 31.5065C33.0382 32.2152 32.175 32.5695 31.1667 32.5695H16.5ZM12.8333 19.9036C12.3139 19.9036 11.8785 19.7302 11.5271 19.3834C11.1757 19.0366 11 18.6068 11 18.0942C11 17.5815 11.1757 17.1518 11.5271 16.805C11.8785 16.4582 12.3139 16.2848 12.8333 16.2848C13.3528 16.2848 13.7882 16.4582 14.1396 16.805C14.491 17.1518 14.6667 17.5815 14.6667 18.0942C14.6667 18.6068 14.491 19.0366 14.1396 19.3834C13.7882 19.7302 13.3528 19.9036 12.8333 19.9036ZM23.8333 19.9036C23.3139 19.9036 22.8785 19.7302 22.5271 19.3834C22.1757 19.0366 22 18.6068 22 18.0942C22 17.5815 22.1757 17.1518 22.5271 16.805C22.8785 16.4582 23.3139 16.2848 23.8333 16.2848C24.3528 16.2848 24.7882 16.4582 25.1396 16.805C25.491 17.1518 25.6667 17.5815 25.6667 18.0942C25.6667 18.6068 25.491 19.0366 25.1396 19.3834C24.7882 19.7302 24.3528 19.9036 23.8333 19.9036ZM7.37917 17.099C7.16528 13.9024 8.14306 11.1581 10.3125 8.86615C12.4819 6.57422 15.1861 5.42825 18.425 5.42825C21.1444 5.42825 23.5354 6.28019 25.5979 7.98405C27.6604 9.68792 28.9056 11.8668 29.3333 14.5206C26.5528 14.4904 23.9937 13.7516 21.6562 12.304C19.3188 10.8565 17.5236 8.8963 16.2708 6.42343C15.7819 8.83599 14.7507 10.9847 13.1771 12.8695C11.6035 14.7543 9.67083 16.1641 7.37917 17.099Z" fill="white"/>
</svg>
