<svg width="20" height="30" viewBox="0 0 20 30" fill="none" xmlns="http://www.w3.org/2000/svg">
<path d="M6.91342 11.0295V28.4721L2.46551 25.2905C1.73252 24.6355 1.36602 23.6997 1.36602 22.4832V3.7305C1.43266 4.72241 1.88245 5.65818 2.73205 6.51908C3.01525 6.79981 3.31511 7.06182 3.66495 7.30512C4.18137 7.67943 4.91436 8.16603 5.86392 8.76492C6.56359 9.19537 6.91342 9.96269 6.91342 11.0295ZM19.5742 0.0997314H2.73205C1.9824 0.0997314 1.33271 0.399177 0.799624 0.998066C0.266541 1.59696 0 2.32685 0 3.16904V6.51908V22.4832C0 24.205 0.549742 25.5338 1.63257 26.4883L1.74918 26.5819L6.19709 29.7448C6.41366 29.9132 6.66354 29.9881 6.91342 29.9881C7.14665 29.9881 7.36321 29.9319 7.56312 29.8009C8.02957 29.5202 8.26279 29.071 8.26279 28.4721V16.7189H15.2429C16.4423 16.7189 17.4585 16.251 18.3081 15.2966C19.1577 14.3421 19.5742 13.2004 19.5742 11.8529V10.2996H8.21282C8.02957 8.97079 7.46317 8.0163 6.51361 7.43613C5.98053 7.09926 5.51408 6.79981 5.11427 6.51908H15.2429C16.4423 6.51908 17.4585 6.0512 18.3081 5.09672C19.1577 4.14224 19.5742 3.00061 19.5742 1.67182V0.0997314Z" fill="#00406D"/>
</svg>
