<svg width="115" height="80" viewBox="0 0 115 80" fill="none" xmlns="http://www.w3.org/2000/svg">
<path d="M52.6731 19.2319V49.9239L43.8762 44.3255C42.4265 43.173 41.7017 41.5264 41.7017 39.3858V6.38868C41.8335 8.13404 42.723 9.7806 44.4034 11.2954C44.9635 11.7894 45.5565 12.2504 46.2484 12.6786C47.2698 13.3372 48.7194 14.1934 50.5974 15.2472C51.9812 16.0046 52.6731 17.3548 52.6731 19.2319ZM77.713 0H44.4034C42.9207 0 41.6358 0.526901 40.5815 1.5807C39.5272 2.6345 39 3.91882 39 5.40073V11.2954V39.3859C39 42.4155 40.0873 44.7537 42.2288 46.4332L42.4595 46.5978L51.2564 52.1632C51.6847 52.4596 52.1789 52.5913 52.6731 52.5913C53.1344 52.5913 53.5627 52.4925 53.9581 52.262C54.8806 51.768 55.3418 50.9777 55.3418 49.9239V29.243H69.1467C71.519 29.243 73.5287 28.4197 75.209 26.7402C76.8894 25.0607 77.713 23.0519 77.713 20.6809V17.9476H55.243C54.8806 15.6094 53.7604 13.9299 51.8824 12.9091C50.8281 12.3163 49.9056 11.7894 49.1148 11.2954H69.1467C71.519 11.2954 73.5287 10.4722 75.209 8.79266C76.8894 7.11316 77.713 5.10436 77.713 2.76623V0Z" fill="#00406D"/>
<path d="M12.5 63.0391C12.5 63.7031 11.9141 64.2891 11.25 64.2891H2.5V69.2891H8.75C9.41406 69.2891 10 69.8359 10 70.5C10 71.125 9.41406 71.75 8.75 71.75H2.5V78C2.5 78.6641 1.91406 79.25 1.25 79.25C0.546875 79.25 0 78.6641 0 78V63C0 62.3359 0.546875 61.7891 1.25 61.7891H11.25C11.9141 61.7891 12.5 62.3359 12.5 63.0391ZM25 78C25 78.7031 24.4141 79.25 23.75 79.25H13.75C13.0469 79.25 12.5 78.7031 12.5 78C12.5 77.3359 13.0469 76.75 13.75 76.75H17.5V64.25H13.75C13.0469 64.25 12.5 63.7031 12.5 63C12.5 62.3359 13.0469 61.75 13.75 61.75H23.75C24.4141 61.75 25 62.3359 25 63C25 63.7031 24.4141 64.25 23.75 64.25H20V76.75H23.75C24.4141 76.75 25 77.3359 25 78ZM39.6875 77.2188C40.1172 77.7656 40.0781 78.5469 39.5312 78.9766C39.2969 79.1719 39.0234 79.25 38.75 79.25C38.3594 79.25 38.0078 79.1328 37.7734 78.8203L32.5 72.4531L27.1875 78.7812C26.9531 79.0938 26.6016 79.25 26.25 79.25C25.9375 79.25 25.6641 79.1328 25.4297 78.9375C24.8828 78.5078 24.8438 77.7266 25.2734 77.1797L30.8594 70.5L25.2734 63.8203C24.8438 63.2734 24.8828 62.4922 25.4297 62.0625C25.9766 61.6328 26.7578 61.6719 27.1875 62.2188L32.5 68.5469L37.7734 62.2188C38.2031 61.6719 38.9844 61.6328 39.5312 62.0625C40.0781 62.4922 40.1172 63.2734 39.6875 63.8203L34.1016 70.5L39.6875 77.2188ZM55 63.0391V78.0391C55 78.7031 54.4141 79.2891 53.75 79.2891C53.0469 79.2891 52.5 78.7031 52.5 78.0391V70.5391H42.5V78.0391C42.5 78.7031 41.9141 79.2891 41.25 79.2891C40.5469 79.2891 40 78.7031 40 78.0391V63.0391C40 62.3359 40.5469 61.7891 41.25 61.7891C41.9141 61.7891 42.5 62.3359 42.5 63.0391V68.0391H52.5V63.0391C52.5 62.3359 53.0469 61.7891 53.75 61.7891C54.4141 61.7891 55 62.3359 55 63.0391ZM63.75 61.7891C68.5547 61.7891 72.5 65.6953 72.5 70.5391C72.5 75.3438 68.5547 79.2891 63.75 79.2891C58.9062 79.2891 55 75.3438 55 70.5391C55 65.6953 58.9062 61.7891 63.75 61.7891ZM63.75 76.75C67.1875 76.75 70 73.9375 70 70.5C70 67.1016 67.1875 64.2891 63.75 64.2891C60.2734 64.2891 57.5 67.0625 57.5 70.5C57.5 73.9766 60.2734 76.75 63.75 76.75ZM87.5 63.0391V71.8281C87.5 75.8906 84.1016 79.2891 80 79.2891C75.8594 79.2891 72.5 75.9297 72.5 71.8281V63.0391C72.5 62.3359 73.0469 61.7891 73.75 61.7891C74.4141 61.7891 75 62.3359 75 63.0391V71.8281C75 74.5625 77.2266 76.7891 80 76.7891C82.7344 76.7891 85 74.5625 85 71.8281V63.0391C85 62.3359 85.5469 61.7891 86.25 61.7891C86.9141 61.7891 87.5 62.3359 87.5 63.0391ZM101.133 75.3438C100.898 76.75 100.156 77.8828 98.9453 78.5469C97.9688 79.0938 96.8359 79.2891 95.6641 79.2891C93.2422 79.2891 90.7422 78.3906 89.4922 77.8828C88.8672 77.6484 88.5547 76.9062 88.8281 76.2812C89.1016 75.6172 89.8047 75.3047 90.4688 75.5781C93.4766 76.8281 96.3281 77.1016 97.7344 76.3594C98.2812 76.0469 98.5547 75.5781 98.6719 74.9141C98.9844 73.2344 97.9688 72.6875 94.6484 71.7109C91.875 70.9297 88.0859 69.8359 88.8281 65.7344C89.0234 64.4844 89.7266 63.3906 90.8203 62.7266C92.5781 61.5547 95.3125 61.4766 98.8672 62.4141C99.5312 62.6094 99.9219 63.2734 99.7656 63.9375C99.5703 64.6016 98.9062 64.9922 98.2422 64.8359C94.6875 63.8984 92.9688 64.2891 92.1484 64.7969C91.6797 65.1484 91.3672 65.5781 91.2891 66.125C90.9766 67.8047 91.9922 68.3516 95.3125 69.3281C98.0859 70.1094 101.875 71.2031 101.133 75.3438ZM115 78C115 78.7031 114.414 79.25 113.75 79.25H103.75C103.047 79.25 102.5 78.7031 102.5 78V63C102.5 62.3359 103.047 61.7891 103.75 61.7891H113.75C114.414 61.7891 115 62.3359 115 63.0391C115 63.7031 114.414 64.2891 113.75 64.2891H105V69.2891H111.25C111.914 69.2891 112.5 69.8359 112.5 70.5C112.5 71.2031 111.914 71.7891 111.25 71.7891H105V76.7891H113.75C114.414 76.75 115 77.3359 115 78Z" fill="#00406D"/>
</svg>
